<svg width="258" height="31" viewBox="0 0 258 31" fill="none" xmlns="http://www.w3.org/2000/svg">
<g clip-path="url(#clip0_711_42)">
<path d="M30.3203 21.3076C11.0141 27.343 9.22664 6.9512 18.4862 2.27286C8.54784 1.66574 1.25444 13.2723 6.97414 22.5933C12.2775 31.2357 25.5301 30.5572 30.3203 21.3076Z" fill="#D8D8D8"/>
<ellipse cx="15.4444" cy="3.09654" rx="15.4444" ry="3.09654" transform="matrix(0.816953 -0.576704 0.577557 0.81635 0 25.5742)" stroke="#999999" stroke-width="1.14407"/>
<path d="M6.97414 22.5933C1.25444 13.2723 8.54784 1.66574 18.4862 2.27286C12.5085 5.29308 11.1348 14.8622 16.1064 19.642L6.97414 22.5933Z" fill="#D8D8D8"/>
</g>
<path d="M48.0127 27.5054C46.3617 27.5054 44.8727 27.218 43.5457 26.6433C42.2291 26.0686 41.1424 25.2483 40.2855 24.1825C39.4391 23.1062 38.901 21.8314 38.6711 20.3581L42.5896 19.7625C42.924 21.1 43.6084 22.1345 44.6429 22.8659C45.6878 23.5974 46.8894 23.9631 48.2478 23.9631C49.0524 23.9631 49.81 23.8377 50.5205 23.5869C51.2311 23.3361 51.8058 22.9704 52.2447 22.4897C52.694 22.0091 52.9186 21.4187 52.9186 20.7186C52.9186 20.4051 52.8664 20.1178 52.7619 19.8565C52.6574 19.5849 52.5007 19.3445 52.2917 19.1355C52.0931 18.9266 51.8319 18.7385 51.508 18.5713C51.1945 18.3936 50.8288 18.2421 50.4108 18.1167L44.5802 16.3926C44.0786 16.2463 43.5352 16.053 42.9501 15.8127C42.3754 15.5619 41.8268 15.2223 41.3043 14.7939C40.7923 14.355 40.3691 13.8012 40.0347 13.1325C39.7108 12.4533 39.5489 11.6173 39.5489 10.6246C39.5489 9.17221 39.9146 7.95487 40.646 6.97265C41.3879 5.97997 42.3806 5.23807 43.6241 4.74696C44.878 4.25585 46.2677 4.01551 47.7933 4.02596C49.3398 4.03641 50.7191 4.30287 51.9312 4.82533C53.1433 5.33734 54.1569 6.08446 54.9719 7.06669C55.7869 8.04892 56.3617 9.2349 56.696 10.6246L52.6365 11.33C52.4693 10.5358 52.1454 9.86186 51.6647 9.30805C51.1945 8.74379 50.6146 8.31537 49.9249 8.02279C49.2457 7.73021 48.5195 7.57348 47.7463 7.55258C46.9939 7.54213 46.2938 7.65707 45.646 7.8974C45.0086 8.12729 44.4913 8.46166 44.0943 8.90053C43.7076 9.3394 43.5143 9.85141 43.5143 10.4366C43.5143 10.9904 43.6815 11.4449 44.0159 11.8002C44.3503 12.145 44.763 12.4219 45.2541 12.6309C45.7557 12.8294 46.2625 12.9966 46.7745 13.1325L50.8183 14.261C51.3722 14.4073 51.9939 14.6058 52.6835 14.8566C53.3732 15.1074 54.0367 15.4574 54.6741 15.9067C55.3115 16.356 55.834 16.9464 56.2415 17.6779C56.6595 18.4093 56.8684 19.3393 56.8684 20.4678C56.8684 21.6381 56.6229 22.6674 56.1318 23.5556C55.6511 24.4333 54.998 25.1647 54.1725 25.7499C53.3471 26.3351 52.4014 26.7739 51.3356 27.0665C50.2802 27.3591 49.1726 27.5054 48.0127 27.5054ZM60.5746 27.0352V4.46483H75.1512V8.00712H64.352V13.5713H73.2704V17.1136H64.352V23.4929H75.1512V27.0352H60.5746ZM79.2252 27.0352V4.46483H83.0496L93.5197 20.3738V4.46483H97.3442V27.0352H93.5197L83.0496 11.1262V27.0352H79.2252ZM107.462 27.0352V8.00712H100.158V4.46483H118.544V8.00712H111.24V27.0352H107.462ZM121.363 27.0352V4.46483H130.689C130.909 4.46483 131.191 4.47528 131.536 4.49618C131.88 4.50663 132.199 4.53798 132.492 4.59022C133.798 4.78876 134.874 5.2224 135.721 5.89115C136.577 6.5599 137.21 7.40629 137.617 8.43031C138.035 9.44389 138.244 10.5724 138.244 11.8159C138.244 13.6549 137.779 15.238 136.849 16.565C135.919 17.8816 134.493 18.6967 132.57 19.0102L130.956 19.1512H125.141V27.0352H121.363ZM134.326 27.0352L129.874 17.8503L133.714 17.0039L138.605 27.0352H134.326ZM125.141 15.6246H130.533C130.742 15.6246 130.977 15.6142 131.238 15.5933C131.499 15.5724 131.739 15.5306 131.959 15.4679C132.586 15.3111 133.077 15.0342 133.432 14.6372C133.798 14.2401 134.054 13.7908 134.2 13.2892C134.357 12.7876 134.435 12.2965 134.435 11.8159C134.435 11.3352 134.357 10.8441 134.2 10.3425C134.054 9.83051 133.798 9.37597 133.432 8.9789C133.077 8.58183 132.586 8.30492 131.959 8.14818C131.739 8.08549 131.499 8.04892 131.238 8.03847C130.977 8.01757 130.742 8.00712 130.533 8.00712H125.141V15.6246ZM147.428 27.0352V17.7876L139.748 4.46483H144.153L149.341 13.4616L154.513 4.46483H158.917L151.253 17.7876V27.0352H147.428ZM166.44 27.0352V4.46483H181.017V8.00712H170.218V13.5713H179.136V17.1136H170.218V23.4929H181.017V27.0352H166.44ZM194.154 27.5054C191.897 27.5054 189.964 27.0143 188.355 26.032C186.745 25.0394 185.507 23.6601 184.64 21.8941C183.783 20.1282 183.355 18.0802 183.355 15.75C183.355 13.4198 183.783 11.3718 184.64 9.60585C185.507 7.83993 186.745 6.46586 188.355 5.48363C189.964 4.49095 191.897 3.99462 194.154 3.99462C196.756 3.99462 198.924 4.64769 200.658 5.95385C202.393 7.24955 203.61 8.9998 204.311 11.2046L200.502 12.2547C200.063 10.7814 199.316 9.63197 198.26 8.80648C197.205 7.97055 195.836 7.55258 194.154 7.55258C192.639 7.55258 191.374 7.89218 190.361 8.57138C189.358 9.25058 188.6 10.2067 188.088 11.4397C187.587 12.6622 187.331 14.099 187.32 15.75C187.32 17.401 187.571 18.843 188.072 20.076C188.584 21.2985 189.347 22.2494 190.361 22.9286C191.374 23.6078 192.639 23.9474 194.154 23.9474C195.836 23.9474 197.205 23.5294 198.26 22.6935C199.316 21.8576 200.063 20.7082 200.502 19.2453L204.311 20.2954C203.61 22.5002 202.393 24.2557 200.658 25.5618C198.924 26.8575 196.756 27.5054 194.154 27.5054ZM217.924 27.5054C215.667 27.5054 213.734 27.0143 212.125 26.032C210.516 25.0394 209.277 23.6601 208.41 21.8941C207.553 20.1282 207.125 18.0802 207.125 15.75C207.125 13.4198 207.553 11.3718 208.41 9.60585C209.277 7.83993 210.516 6.46586 212.125 5.48363C213.734 4.49095 215.667 3.99462 217.924 3.99462C220.181 3.99462 222.114 4.49095 223.724 5.48363C225.343 6.46586 226.581 7.83993 227.438 9.60585C228.306 11.3718 228.739 13.4198 228.739 15.75C228.739 18.0802 228.306 20.1282 227.438 21.8941C226.581 23.6601 225.343 25.0394 223.724 26.032C222.114 27.0143 220.181 27.5054 217.924 27.5054ZM217.924 23.9474C219.439 23.9579 220.698 23.6235 221.702 22.9443C222.715 22.2651 223.473 21.309 223.974 20.076C224.486 18.843 224.742 17.401 224.742 15.75C224.742 14.099 224.486 12.6675 223.974 11.4554C223.473 10.2328 222.715 9.28192 221.702 8.60273C220.698 7.92353 219.439 7.57348 217.924 7.55258C216.409 7.54213 215.15 7.8765 214.147 8.5557C213.144 9.2349 212.386 10.191 211.874 11.424C211.373 12.657 211.122 14.099 211.122 15.75C211.122 17.401 211.373 18.8377 211.874 20.0603C212.376 21.2724 213.128 22.2181 214.131 22.8973C215.145 23.5765 216.409 23.9265 217.924 23.9474ZM232.486 27.0352V4.46483H235.887L243.693 20.4521L251.498 4.46483H254.9V27.0352H251.373V12.5682L244.445 27.0352H242.94L236.028 12.5682V27.0352H232.486Z" fill="#D8D8D8"/>
<defs>
<clipPath id="clip0_711_42">
<rect width="30.3178" height="30.2842" fill="white" transform="translate(0 0.394531)"/>
</clipPath>
</defs>
</svg>
