<svg width="100" height="100" viewBox="0 0 100 100" fill="none" xmlns="http://www.w3.org/2000/svg">
<rect opacity="0.25" width="100" height="100" rx="20.8955" fill="#C7D3FF"/>
<path d="M72.6843 59.1418C72.1453 58.6018 71.4894 58.332 70.7181 58.332H58.3697C57.9652 59.4115 57.2854 60.2982 56.3311 60.9921C55.3765 61.6862 54.3116 62.0334 53.1358 62.0334H45.7318C44.5559 62.0334 43.4907 61.6861 42.5366 60.9921C41.5821 60.2982 40.9028 59.4116 40.4979 58.332H28.1493C27.3783 58.332 26.7228 58.6018 26.1828 59.1418C25.6429 59.6811 25.3731 60.3366 25.3731 61.1079V70.362C25.3731 71.1328 25.6429 71.7891 26.1828 72.3281C26.7227 72.8679 27.3782 73.1375 28.1493 73.1375H70.7185C71.4894 73.1375 72.1453 72.8679 72.6846 72.3281C73.2247 71.7884 73.4943 71.1328 73.4943 70.362V61.1079C73.4943 60.3366 73.2247 59.6818 72.6843 59.1418ZM61.8405 68.8871C61.4737 69.2535 61.0398 69.4369 60.5385 69.4369C60.0372 69.4369 59.6039 69.2535 59.2372 68.8871C58.8711 68.5211 58.6881 68.0871 58.6881 67.5858C58.6881 67.0845 58.8711 66.6503 59.2372 66.2845C59.6039 65.9186 60.0372 65.7347 60.5385 65.7347C61.0398 65.7347 61.4736 65.9185 61.8405 66.2845C62.2064 66.6502 62.3896 67.0845 62.3896 67.5858C62.3896 68.0871 62.2064 68.521 61.8405 68.8871ZM69.2432 68.8871C68.8772 69.2535 68.4432 69.4369 67.9418 69.4369C67.4406 69.4369 67.007 69.2535 66.6405 68.8871C66.2746 68.5211 66.0915 68.0871 66.0915 67.5858C66.0915 67.0845 66.2746 66.6503 66.6405 66.2845C67.0069 65.9186 67.4405 65.7347 67.9418 65.7347C68.4431 65.7347 68.8771 65.9185 69.2432 66.2845C69.6096 66.6502 69.7929 67.0845 69.7929 67.5858C69.7929 68.0871 69.6099 68.521 69.2432 68.8871Z" fill="#7C8298"/>
<path d="M36.4787 43.525H43.882V56.481C43.882 56.9822 44.0652 57.4162 44.4314 57.7823C44.7978 58.1483 45.2316 58.332 45.7327 58.332H53.1367C53.6379 58.332 54.0713 58.1484 54.438 57.7823C54.804 57.4163 54.9871 56.9823 54.9871 56.481V43.525H62.3905C63.2006 43.525 63.7694 43.1391 64.0967 42.3682C64.4246 41.6164 64.2893 40.9511 63.6918 40.3727L50.7358 27.4168C50.3884 27.0504 49.9552 26.8672 49.4345 26.8672C48.9143 26.8672 48.4804 27.0504 48.1332 27.4168L35.1776 40.3727C34.5797 40.9511 34.4449 41.616 34.7725 42.3682C35.1006 43.1395 35.6692 43.525 36.4787 43.525Z" fill="white"/>
</svg>
