<svg width="100" height="100" viewBox="0 0 100 100" fill="none" xmlns="http://www.w3.org/2000/svg">
<rect opacity="0.25" width="100" height="100" rx="20.8955" fill="#C7D3FF"/>
<path d="M72.6843 59.1378C72.1453 58.5979 71.4894 58.3281 70.7181 58.3281H54.7309C54.3263 59.4076 53.6465 60.2943 52.6923 60.9882C51.7376 61.6823 50.6727 62.0295 49.4969 62.0295C48.3211 62.0295 47.2558 61.6822 46.3017 60.9882C45.3472 60.2943 44.6679 59.4077 44.263 58.3281H28.1493C27.3783 58.3281 26.7228 58.5979 26.1828 59.1378C25.6429 59.6772 25.3731 60.3327 25.3731 61.104V70.3581C25.3731 71.1289 25.6429 71.7852 26.1828 72.3242C26.7227 72.8639 27.3782 73.1336 28.1493 73.1336H70.7185C71.4894 73.1336 72.1453 72.8639 72.6846 72.3242C73.2247 71.7845 73.4943 71.1289 73.4943 70.3581V61.104C73.4943 60.3327 73.2247 59.6779 72.6843 59.1378ZM61.8405 68.8832C61.4737 69.2496 61.0397 69.433 60.5385 69.433C60.0372 69.433 59.6038 69.2496 59.2372 68.8832C58.8711 68.5172 58.6881 68.0832 58.6881 67.5819C58.6881 67.0806 58.8711 66.6464 59.2372 66.2806C59.6038 65.9146 60.0372 65.7308 60.5385 65.7308C61.0397 65.7308 61.4736 65.9145 61.8405 66.2806C62.2064 66.6463 62.3896 67.0806 62.3896 67.5819C62.3896 68.0832 62.2064 68.5171 61.8405 68.8832ZM69.2432 68.8832C68.8772 69.2496 68.4432 69.433 67.9418 69.433C67.4406 69.433 67.007 69.2496 66.6405 68.8832C66.2746 68.5172 66.0915 68.0832 66.0915 67.5819C66.0915 67.0806 66.2746 66.6464 66.6405 66.2806C67.0069 65.9146 67.4405 65.7308 67.9418 65.7308C68.4431 65.7308 68.8771 65.9145 69.2432 66.2806C69.6096 66.6463 69.7929 67.0806 69.7929 67.5819C69.7929 68.0832 69.6099 68.5171 69.2432 68.8832Z" fill="#7C8298"/>
<path d="M62.3906 41.6743H54.9873V28.7182C54.9873 28.217 54.8041 27.783 54.4379 27.4169C54.0716 27.0509 53.6377 26.8672 53.1366 26.8672L45.7327 26.8672C45.2315 26.8672 44.798 27.0508 44.4314 27.4169C44.0653 27.7829 43.8823 28.2169 43.8823 28.7182V41.6743H36.4788C35.6688 41.6743 35.0999 42.0601 34.7727 42.831C34.4448 43.5828 34.58 44.2481 35.1775 44.8265L48.1336 57.7824C48.4809 58.1488 48.9141 58.332 49.4349 58.332C49.9551 58.332 50.3889 58.1488 50.7361 57.7824L63.6918 44.8265C64.2896 44.2481 64.4244 43.5832 64.0969 42.831C63.7688 42.0597 63.2001 41.6743 62.3906 41.6743Z" fill="white"/>
</svg>
