<svg width="100" height="100" viewBox="0 0 100 100" fill="none" xmlns="http://www.w3.org/2000/svg">
<rect opacity="0.25" width="100" height="100" rx="20.8955" fill="#C7D3FF"/>
<path d="M68.2716 26.8672H30.1396C28.8755 26.8672 27.6631 27.3694 26.7692 28.2633C25.8753 29.1572 25.3731 30.3695 25.3731 31.6337V53.8773C25.3731 55.1415 25.8753 56.3538 26.7692 57.2477C27.6631 58.1416 28.8755 58.6438 30.1396 58.6438H48.6865V48.8535C48.6862 47.8504 48.9429 47.3826 49.5306 46.5696C50.1182 45.7566 50.9474 45.1497 51.9001 44.8353L61.1449 40.9948C62.1051 40.6817 63.1399 40.6817 64.1001 40.9948L71.7712 44.7822L73.038 45.3771V31.6337C73.038 30.3695 72.5359 29.1572 71.642 28.2633C70.7481 27.3694 69.5357 26.8672 68.2716 26.8672ZM56.4348 40.2769L51.6683 43.1368C50.9288 43.5791 50.0832 43.8127 49.2215 43.8127C48.3598 43.8127 47.5142 43.5791 46.7747 43.1368L42.0082 40.2769L31.1406 33.7627L32.7294 31.0458L48.3476 40.4199C48.5892 40.5594 48.8631 40.6328 49.142 40.6328C49.4209 40.6328 49.6949 40.5594 49.9364 40.4199L65.5388 31.0458L67.1276 33.7627L56.4348 40.2769Z" fill="#7C8298"/>
<path d="M63.2266 43.5356C62.8674 43.3761 62.4576 43.3761 62.0984 43.5356L51.5724 48.2085C51.0701 48.4315 50.7463 48.9295 50.7463 49.4791V56.5104C50.7463 63.8504 55.8305 70.7142 62.6625 72.3806C69.4945 70.7142 74.5787 63.8504 74.5787 56.5104V49.4791C74.5787 48.9295 74.2549 48.4315 73.7526 48.2085L63.2266 43.5356ZM60.5057 63.9548C60.2343 64.2259 59.7946 64.2259 59.5232 63.9548L55.07 59.5067C54.8759 59.3127 54.8759 58.9981 55.07 58.8041L56.235 57.6405C56.4286 57.4471 56.7421 57.4468 56.9361 57.6398L59.6636 60.3536C59.8575 60.5466 60.1711 60.5463 60.3647 60.3529L68.3876 52.3391C68.582 52.145 68.897 52.1455 69.0907 52.3403L70.2574 53.514C70.4504 53.7082 70.4499 54.0219 70.2562 54.2154L60.5057 63.9548Z" fill="white"/>
</svg>
