<svg width="191" height="31" viewBox="0 0 191 31" fill="none" xmlns="http://www.w3.org/2000/svg">
<path d="M30.178 2.38377C30.5968 1.96538 30.5968 1.28702 30.178 0.86862C29.7591 0.450222 29.08 0.450222 28.6611 0.868621L30.178 2.38377ZM18.9799 5.51878C18.9799 4.92707 18.4997 4.4474 17.9074 4.4474C17.315 4.4474 16.8348 4.92707 16.8348 5.51878L18.9799 5.51878ZM25.7012 14.0969C26.2935 14.0969 26.7737 13.6173 26.7737 13.0255C26.7737 12.4338 26.2935 11.9542 25.7012 11.9542L25.7012 14.0969ZM17.9074 12.9532L18.9799 12.9532L17.9074 12.9532ZM28.6611 0.868621L17.271 12.2461L18.7878 13.7613L30.178 2.38377L28.6611 0.868621ZM18.9799 12.9532L18.9799 5.51878L16.8348 5.51878L16.8348 12.9532L18.9799 12.9532ZM17.9074 14.097L25.7012 14.0969L25.7012 11.9542L17.9074 11.9543L17.9074 14.097ZM17.271 12.2461C17.9016 11.6162 18.9799 12.0623 18.9799 12.9532L16.8348 12.9532C16.8348 13.9713 18.0671 14.4812 18.7878 13.7613L17.271 12.2461Z" fill="#C1C1C1"/>
<path d="M1.0432 28.71C0.624339 29.1284 0.624339 29.8067 1.0432 30.2251C1.46206 30.6435 2.14117 30.6435 2.56004 30.2251L1.0432 28.71ZM12.2412 25.575C12.2412 26.1667 12.7214 26.6463 13.3138 26.6463C13.9062 26.6463 14.3864 26.1667 14.3864 25.575L12.2412 25.575ZM5.51998 16.9968C4.92762 16.9968 4.44742 17.4765 4.44743 18.0682C4.44743 18.6599 4.92764 19.1396 5.52 19.1396L5.51998 16.9968ZM13.3138 18.1406L12.2412 18.1406L13.3138 18.1406ZM2.56004 30.2251L13.9502 18.8476L12.4333 17.3325L1.0432 28.71L2.56004 30.2251ZM12.2412 18.1406L12.2412 25.575L14.3864 25.575L14.3864 18.1406L12.2412 18.1406ZM13.3138 16.9967L5.51998 16.9968L5.52 19.1396L13.3138 19.1395L13.3138 16.9967ZM13.9502 18.8476C13.3195 19.4776 12.2412 19.0314 12.2412 18.1406L14.3864 18.1406C14.3864 17.1224 13.154 16.6126 12.4333 17.3325L13.9502 18.8476Z" fill="#C1C1C1"/>
<path d="M56.4584 26.0352H51.6076C51.2919 26.0352 51.0336 25.9586 50.8327 25.8055C50.6413 25.6525 50.4882 25.4707 50.3734 25.2602L46.1828 17.941C46.1063 18.1515 46.0202 18.3333 45.9245 18.4863L42.0209 25.2602C41.887 25.4515 41.7291 25.6285 41.5473 25.7912C41.3655 25.9538 41.1311 26.0352 40.8441 26.0352H36.3091L43.0399 15.2716L36.5674 5.12523H41.4182C41.7339 5.12523 41.9635 5.16829 42.107 5.25439C42.2601 5.33093 42.3941 5.46488 42.5089 5.65623L46.6708 12.7027C46.7186 12.5784 46.7712 12.4588 46.8286 12.344C46.8956 12.2292 46.9674 12.1096 47.0439 11.9852L50.6891 5.72799C50.8231 5.5175 50.9618 5.36442 51.1053 5.26875C51.2584 5.17307 51.445 5.12523 51.665 5.12523H56.3149L49.7563 15.0707L56.4584 26.0352ZM70.6499 22.1603V26.0352H58.0494V5.12523H62.9001V22.1603H70.6499ZM79.645 14.9559C80.3052 14.9559 80.8649 14.8746 81.3241 14.7119C81.7929 14.5397 82.1756 14.3053 82.4722 14.0087C82.7688 13.7121 82.9841 13.3677 83.118 12.9754C83.252 12.5736 83.319 12.143 83.319 11.6838C83.319 10.7653 83.0176 10.0477 82.4148 9.5311C81.8216 9.01445 80.8984 8.75612 79.645 8.75612H77.6932V14.9559H79.645ZM89.9493 26.0352H85.5578C84.7445 26.0352 84.1609 25.729 83.8069 25.1167L80.3339 19.046C80.1712 18.7877 79.9894 18.6012 79.7885 18.4863C79.5876 18.362 79.3006 18.2998 78.9274 18.2998H77.6932V26.0352H72.8425V5.12523H79.645C81.1567 5.12523 82.4435 5.2831 83.5055 5.59883C84.5771 5.90499 85.4477 6.33553 86.1175 6.89045C86.7968 7.44537 87.2895 8.10075 87.5957 8.85658C87.9018 9.61242 88.0549 10.4352 88.0549 11.325C88.0549 12.0043 87.964 12.6453 87.7822 13.2481C87.6005 13.8509 87.3326 14.4106 86.9786 14.9272C86.6246 15.4343 86.1844 15.8887 85.6582 16.2906C85.1416 16.6924 84.5436 17.0225 83.8643 17.2808C84.18 17.4435 84.4766 17.6492 84.7541 17.8979C85.0316 18.1371 85.2803 18.4242 85.5004 18.759L89.9493 26.0352ZM121.283 5.12523V26.0352H117.007V14.0087C117.007 13.7313 117.011 13.4299 117.021 13.1046C117.04 12.7793 117.069 12.4492 117.107 12.1143L111.553 22.8635C111.381 23.1984 111.146 23.4519 110.85 23.6241C110.563 23.7963 110.233 23.8825 109.86 23.8825H109.199C108.826 23.8825 108.491 23.7963 108.195 23.6241C107.908 23.4519 107.678 23.1984 107.506 22.8635L101.952 12.0856C101.981 12.4301 102.005 12.7697 102.024 13.1046C102.043 13.4299 102.052 13.7313 102.052 14.0087V26.0352H97.7757V5.12523H101.478C101.689 5.12523 101.871 5.13002 102.024 5.13958C102.186 5.14915 102.33 5.17785 102.454 5.22569C102.579 5.27353 102.689 5.35007 102.784 5.45531C102.89 5.55099 102.99 5.68972 103.086 5.8715L108.467 16.4772C108.659 16.8407 108.841 17.2186 109.013 17.6109C109.195 18.0032 109.367 18.405 109.529 18.8164C109.692 18.3955 109.86 17.984 110.032 17.5822C110.214 17.1804 110.405 16.7977 110.606 16.4341L115.973 5.8715C116.069 5.68972 116.165 5.55099 116.26 5.45531C116.366 5.35007 116.48 5.27353 116.605 5.22569C116.729 5.17785 116.868 5.14915 117.021 5.13958C117.184 5.13002 117.37 5.12523 117.581 5.12523H121.283ZM129.922 8.85658V13.736H136.495V17.3239H129.922V22.3038H138.504V26.0352H125.042V5.12523H138.504V8.85658H129.922ZM160.181 15.573C160.181 17.0847 159.918 18.4816 159.392 19.7636C158.875 21.0361 158.143 22.1412 157.196 23.0788C156.249 24.0068 155.106 24.734 153.766 25.2602C152.436 25.7768 150.958 26.0352 149.332 26.0352H141.209V5.12523H149.332C150.958 5.12523 152.436 5.38834 153.766 5.91456C155.106 6.44077 156.249 7.16791 157.196 8.09596C158.143 9.02402 158.875 10.1291 159.392 11.4111C159.918 12.6836 160.181 14.0709 160.181 15.573ZM155.216 15.573C155.216 14.5397 155.082 13.6069 154.814 12.7745C154.546 11.9421 154.158 11.2389 153.651 10.6649C153.154 10.0812 152.542 9.63634 151.814 9.33018C151.087 9.01445 150.26 8.85658 149.332 8.85658H146.088V22.3038H149.332C150.26 22.3038 151.087 22.1507 151.814 21.8446C152.542 21.5288 153.154 21.0839 153.651 20.5099C154.158 19.9263 154.546 19.2183 154.814 18.3859C155.082 17.5535 155.216 16.6159 155.216 15.573ZM167.637 26.0352H162.757V5.12523H167.637V26.0352ZM182.434 18.0415L180.497 12.3153C180.353 11.9517 180.2 11.5259 180.037 11.038C179.875 10.5405 179.712 10.0047 179.55 9.43064C179.406 10.0143 179.253 10.5548 179.09 11.0523C178.928 11.5499 178.775 11.9804 178.631 12.344L176.708 18.0415H182.434ZM190.141 26.0352H186.381C185.96 26.0352 185.62 25.9395 185.362 25.7481C185.103 25.5472 184.907 25.2937 184.773 24.9875L183.539 21.3423H175.589L174.354 24.9875C174.249 25.2554 174.058 25.4994 173.78 25.7194C173.512 25.9299 173.178 26.0352 172.776 26.0352H168.987L177.081 5.12523H182.047L190.141 26.0352Z" fill="#D8D8D8"/>
</svg>
