<svg width="106" height="44" viewBox="0 0 106 44" fill="none" xmlns="http://www.w3.org/2000/svg">
<path d="M32.5566 6.55691V18.3438H31.3232C31.0284 18.3438 30.8423 18.2002 30.7647 17.9132L30.6018 16.645C30.0898 17.2112 29.5158 17.6689 28.8797 18.018C28.2436 18.3593 27.5145 18.5299 26.6922 18.5299C26.0484 18.5299 25.4783 18.4252 24.9818 18.2158C24.4931 17.9986 24.082 17.696 23.7484 17.3082C23.4149 16.9203 23.1628 16.451 22.9921 15.9003C22.8292 15.3495 22.7478 14.7406 22.7478 14.0735V6.55691H24.8189V14.0735C24.8189 14.9656 25.0206 15.6559 25.424 16.1446C25.8351 16.6333 26.4595 16.8777 27.2973 16.8777C27.9101 16.8777 28.4802 16.7342 29.0077 16.4472C29.5429 16.1524 30.0355 15.749 30.4854 15.2371V6.55691H32.5566ZM39.9246 18.5299C38.9938 18.5299 38.2762 18.2701 37.772 17.7503C37.2756 17.2306 37.0273 16.4821 37.0273 15.5047V8.29061H35.6078C35.4837 8.29061 35.379 8.25571 35.2936 8.18589C35.2083 8.10832 35.1657 7.99197 35.1657 7.83682V7.0107L37.0972 6.76635L37.5742 3.12442C37.5975 3.00806 37.6479 2.91498 37.7255 2.84516C37.8108 2.76759 37.9194 2.72881 38.0513 2.72881H39.0985V6.78962H42.5077V8.29061H39.0985V15.365C39.0985 15.8615 39.2187 16.23 39.4592 16.4704C39.6997 16.7109 40.0099 16.8311 40.39 16.8311C40.6072 16.8311 40.7934 16.804 40.9485 16.7497C41.1114 16.6876 41.2511 16.6217 41.3674 16.5519C41.4838 16.4821 41.5807 16.42 41.6583 16.3657C41.7436 16.3036 41.8173 16.2726 41.8794 16.2726C41.988 16.2726 42.0849 16.3386 42.1703 16.4704L42.7753 17.4594C42.4185 17.793 41.988 18.0567 41.4838 18.2507C40.9796 18.4368 40.4598 18.5299 39.9246 18.5299ZM47.0781 8.91893C47.4505 8.1122 47.9081 7.48388 48.4511 7.03397C48.9941 6.5763 49.6573 6.34747 50.4408 6.34747C50.689 6.34747 50.9256 6.37462 51.1506 6.42892C51.3833 6.48322 51.5888 6.56855 51.7673 6.6849L51.616 8.23243C51.5695 8.42636 51.4531 8.52332 51.2669 8.52332C51.1583 8.52332 50.9993 8.50005 50.7899 8.45351C50.5804 8.40697 50.3438 8.3837 50.0801 8.3837C49.7078 8.3837 49.3742 8.438 49.0794 8.54659C48.7924 8.65519 48.5326 8.81809 48.2999 9.03529C48.0749 9.24473 47.8693 9.50847 47.6832 9.82651C47.5048 10.1368 47.3419 10.4936 47.1945 10.897V18.3438H45.1117V6.55691H46.2985C46.5235 6.55691 46.6786 6.59958 46.764 6.6849C46.8493 6.77023 46.9075 6.91761 46.9385 7.12705L47.0781 8.91893ZM61.4655 11.1646C61.4655 10.6837 61.3957 10.2454 61.2561 9.84978C61.1242 9.44641 60.9264 9.10122 60.6627 8.81421C60.4067 8.51945 60.0925 8.29449 59.7202 8.13935C59.3478 7.97645 58.9251 7.895 58.4519 7.895C57.459 7.895 56.6717 8.18589 56.0899 8.76767C55.5159 9.34169 55.159 10.1407 55.0194 11.1646H61.4655ZM63.141 16.6915C62.8851 17.0018 62.5786 17.2733 62.2218 17.506C61.865 17.7309 61.481 17.9171 61.0699 18.0645C60.6665 18.2119 60.2477 18.3205 59.8133 18.3903C59.3789 18.4679 58.9483 18.5066 58.5217 18.5066C57.7072 18.5066 56.9548 18.3709 56.2644 18.0994C55.5818 17.8201 54.9884 17.4168 54.4842 16.8893C53.9877 16.3541 53.5999 15.6947 53.3206 14.9113C53.0414 14.1278 52.9017 13.228 52.9017 12.2118C52.9017 11.3896 53.0258 10.6216 53.2741 9.90796C53.53 9.19431 53.8946 8.57762 54.3678 8.0579C54.841 7.53042 55.4189 7.1193 56.1015 6.82453C56.7841 6.522 57.5521 6.37074 58.4054 6.37074C59.1112 6.37074 59.7628 6.49098 60.3601 6.73145C60.9652 6.96416 61.4849 7.30547 61.9193 7.75538C62.3615 8.19753 62.7066 8.74828 62.9549 9.40763C63.2031 10.0592 63.3272 10.8039 63.3272 11.6417C63.3272 11.9675 63.2923 12.1847 63.2225 12.2933C63.1527 12.4018 63.0208 12.4561 62.8269 12.4561H54.9496C54.9729 13.2008 55.0737 13.8485 55.2521 14.3993C55.4383 14.95 55.6943 15.4116 56.0201 15.7839C56.3459 16.1485 56.7337 16.4239 57.1836 16.61C57.6335 16.7885 58.1377 16.8777 58.6962 16.8777C59.216 16.8777 59.662 16.8195 60.0343 16.7031C60.4144 16.579 60.7402 16.4472 61.0117 16.3075C61.2832 16.1679 61.5082 16.0399 61.6866 15.9236C61.8728 15.7994 62.0318 15.7374 62.1636 15.7374C62.3343 15.7374 62.4662 15.8033 62.5593 15.9352L63.141 16.6915Z" fill="#D8D8D8"/>
<path d="M42.7716 38.8733C42.9304 38.8733 43.0671 38.9351 43.1818 39.0586L44.2934 40.2761C43.517 41.1936 42.5686 41.9038 41.4482 42.4066C40.3366 42.9095 38.9956 43.161 37.4253 43.161C36.049 43.161 34.8006 42.9228 33.6802 42.4463C32.5686 41.9699 31.6158 41.3039 30.8218 40.4481C30.0366 39.5923 29.4279 38.569 28.9956 37.3779C28.5633 36.1869 28.3471 34.8768 28.3471 33.4476C28.3471 32.0184 28.5721 30.7083 29.022 29.5173C29.4808 28.3263 30.1204 27.3029 30.9409 26.4471C31.7614 25.5914 32.7406 24.9253 33.8787 24.4489C35.0256 23.9725 36.2916 23.7343 37.6767 23.7343C39.0265 23.7343 40.2263 23.9549 41.2762 24.396C42.326 24.8371 43.2391 25.4238 44.0155 26.156L43.0892 27.4661C43.0274 27.5632 42.948 27.6426 42.851 27.7043C42.7627 27.7661 42.6436 27.797 42.4937 27.797C42.326 27.797 42.1275 27.7131 41.8982 27.5455C41.6776 27.3779 41.3821 27.1926 41.0115 26.9897C40.6498 26.778 40.1999 26.5883 39.6617 26.4207C39.1235 26.2531 38.4531 26.1692 37.6502 26.1692C36.7062 26.1692 35.8417 26.3369 35.0565 26.6721C34.2713 26.9985 33.592 27.4749 33.0185 28.1013C32.4539 28.7189 32.0128 29.482 31.6952 30.3907C31.3864 31.2906 31.232 32.3096 31.232 33.4476C31.232 34.6033 31.3952 35.6311 31.7217 36.531C32.0481 37.4309 32.498 38.194 33.0715 38.8204C33.6449 39.4468 34.3198 39.9232 35.0962 40.2496C35.8725 40.576 36.7107 40.7392 37.6105 40.7392C38.1575 40.7392 38.6471 40.7084 39.0794 40.6466C39.5206 40.576 39.922 40.4746 40.2837 40.3422C40.6542 40.2099 41.0027 40.0423 41.3291 39.8394C41.6555 39.6276 41.9776 39.3762 42.2952 39.0851C42.3657 39.0233 42.4407 38.9748 42.5201 38.9395C42.5995 38.8954 42.6833 38.8733 42.7716 38.8733ZM50.0371 23.4167V42.9492H47.4434V23.4167H50.0371ZM63.4229 34.7313C63.4229 34.2196 63.3479 33.7476 63.198 33.3153C63.0568 32.883 62.8451 32.5081 62.5628 32.1905C62.2804 31.8728 61.9364 31.6258 61.5305 31.4494C61.1247 31.2729 60.6571 31.1847 60.1278 31.1847C59.0427 31.1847 58.1869 31.4979 57.5605 32.1243C56.943 32.7507 56.5504 33.6197 56.3827 34.7313H63.4229ZM65.5535 41.0304C65.2359 41.4009 64.8698 41.7229 64.4551 41.9964C64.0405 42.2611 63.5994 42.4772 63.1318 42.6449C62.6642 42.8125 62.179 42.936 61.6761 43.0154C61.1821 43.0948 60.6924 43.1345 60.2072 43.1345C59.2809 43.1345 58.4207 42.9801 57.6267 42.6713C56.8415 42.3537 56.1578 41.895 55.5755 41.295C55.0021 40.6863 54.5521 39.9364 54.2257 39.0454C53.9081 38.1455 53.7493 37.1133 53.7493 35.9487C53.7493 35.0136 53.8949 34.1446 54.186 33.3418C54.4771 32.5301 54.8918 31.8243 55.4299 31.2244C55.9769 30.6245 56.643 30.1525 57.4282 29.8084C58.2134 29.4644 59.0956 29.2923 60.0749 29.2923C60.8953 29.2923 61.6496 29.4291 62.3378 29.7026C63.0347 29.9672 63.6347 30.3554 64.1375 30.8671C64.6404 31.3788 65.033 32.0096 65.3153 32.7595C65.6064 33.5094 65.752 34.3651 65.752 35.3268C65.752 35.7238 65.7079 35.9929 65.6197 36.134C65.5315 36.2663 65.3682 36.3325 65.13 36.3325H56.3166C56.343 37.1353 56.4577 37.8367 56.6607 38.4366C56.8636 39.0277 57.1415 39.5218 57.4944 39.9188C57.8561 40.3158 58.284 40.6113 58.778 40.8054C59.272 40.9995 59.8234 41.0965 60.4322 41.0965C61.0056 41.0965 61.4997 41.0304 61.9143 40.898C62.3378 40.7657 62.6995 40.6245 62.9995 40.4746C63.3082 40.3158 63.5641 40.1702 63.767 40.0379C63.9787 39.9055 64.164 39.8394 64.3228 39.8394C64.5345 39.8394 64.6977 39.9188 64.8124 40.0776L65.5535 41.0304ZM71.7546 32.0846C72.1869 31.2024 72.7074 30.5098 73.3161 30.0069C73.9249 29.5041 74.6571 29.2526 75.5129 29.2526C75.804 29.2526 76.0775 29.2879 76.3334 29.3585C76.598 29.4203 76.8274 29.5173 77.0215 29.6496L76.8495 31.5949C76.7877 31.8331 76.6421 31.9522 76.4128 31.9522C76.2893 31.9522 76.104 31.9302 75.857 31.8861C75.6099 31.8331 75.3453 31.8067 75.063 31.8067C74.6483 31.8067 74.2822 31.8684 73.9646 31.9919C73.647 32.1066 73.3603 32.2831 73.1044 32.5213C72.8574 32.7507 72.6368 33.0374 72.4427 33.3815C72.2487 33.7167 72.0678 34.1005 71.9002 34.5328V42.9492H69.3197V29.5041H70.8018C71.0841 29.5041 71.2738 29.557 71.3708 29.6629C71.4767 29.7599 71.5517 29.9364 71.5958 30.1922L71.7546 32.0846ZM82.3866 23.4167V34.8371H82.9954C83.1806 34.8371 83.335 34.8107 83.4585 34.7577C83.582 34.7048 83.71 34.5989 83.8423 34.4401L87.8653 30.0069C87.9888 29.8393 88.1255 29.7158 88.2755 29.6364C88.4255 29.5482 88.6151 29.5041 88.8445 29.5041H91.2001L86.4493 34.7048C86.1934 35.0312 85.9199 35.2827 85.6288 35.4591C85.7964 35.5738 85.942 35.7061 86.0655 35.8561C86.1978 36.0061 86.3258 36.1693 86.4493 36.3457L91.5044 42.9492H89.1886C88.9769 42.9492 88.7916 42.9139 88.6328 42.8434C88.4828 42.7728 88.3461 42.6449 88.2226 42.4596L84.0673 37.0603C83.9349 36.8574 83.8026 36.7295 83.6703 36.6766C83.5379 36.6148 83.3394 36.5839 83.0748 36.5839H82.3866V42.9492H79.8061V23.4167H82.3866Z" fill="#D8D8D8"/>
<path d="M90.7186 8.65522C90.6565 8.74055 90.5945 8.80648 90.5324 8.85303C90.4703 8.89957 90.385 8.92284 90.2764 8.92284C90.1601 8.92284 90.0321 8.8763 89.8924 8.78321C89.7528 8.68237 89.5783 8.57377 89.3688 8.45742C89.1672 8.34106 88.9151 8.23634 88.6125 8.14326C88.3178 8.04241 87.9532 7.99199 87.5188 7.99199C86.937 7.99199 86.425 8.09671 85.9829 8.30615C85.5407 8.50784 85.1684 8.80261 84.8659 9.19046C84.5711 9.57831 84.3462 10.0476 84.191 10.5984C84.0436 11.1491 83.9699 11.7658 83.9699 12.4484C83.9699 13.1621 84.0514 13.7981 84.2143 14.3567C84.3772 14.9074 84.606 15.3728 84.9008 15.7529C85.2033 16.1253 85.564 16.4123 85.9829 16.614C86.4095 16.8079 86.8866 16.9048 87.4141 16.9048C87.9183 16.9048 88.3333 16.8467 88.6591 16.7303C88.9849 16.6062 89.2525 16.4705 89.4619 16.3231C89.6791 16.1757 89.8575 16.0438 89.9972 15.9275C90.1446 15.8033 90.2881 15.7413 90.4277 15.7413C90.5983 15.7413 90.7302 15.8072 90.8233 15.9391L91.4051 16.6954C91.1491 17.0134 90.8582 17.2849 90.5324 17.5099C90.2066 17.7348 89.8537 17.9249 89.4736 18.08C89.1012 18.2274 88.7095 18.336 88.2984 18.4058C87.8873 18.4756 87.4684 18.5106 87.0417 18.5106C86.3048 18.5106 85.6183 18.3748 84.9822 18.1033C84.3539 17.8318 83.807 17.4401 83.3416 16.9281C82.8762 16.4084 82.5116 15.7723 82.2479 15.0199C81.9841 14.2674 81.8523 13.4103 81.8523 12.4484C81.8523 11.5719 81.9725 10.7613 82.213 10.0166C82.4612 9.27191 82.818 8.63195 83.2834 8.09671C83.7566 7.55372 84.3345 7.13096 85.0171 6.82844C85.7075 6.52591 86.4987 6.37465 87.3908 6.37465C88.2208 6.37465 88.95 6.5104 89.5783 6.78189C90.2144 7.04563 90.7768 7.42185 91.2654 7.91055L90.7186 8.65522ZM96.1766 8.13162C96.6808 7.59638 97.2393 7.16975 97.8521 6.85171C98.4649 6.53367 99.1708 6.37465 99.9698 6.37465C100.614 6.37465 101.18 6.48325 101.669 6.70044C102.165 6.90989 102.576 7.21241 102.902 7.60802C103.235 7.99587 103.488 8.46517 103.658 9.01592C103.829 9.56668 103.914 10.1756 103.914 10.8427V18.3477H101.831V10.8427C101.831 9.95065 101.626 9.26027 101.215 8.77158C100.811 8.27513 100.195 8.0269 99.3647 8.0269C98.7519 8.0269 98.1779 8.17428 97.6427 8.46905C97.1152 8.76382 96.6265 9.16331 96.1766 9.66752V18.3477H94.0938V1.20845H96.1766V8.13162Z" fill="#D8D8D8"/>
<path d="M74.3045 10.45C74.1042 10.4124 73.8976 10.3936 73.6848 10.3936C73.2967 10.3936 72.9336 10.4781 72.5956 10.6471C72.2575 10.8161 71.9633 11.0446 71.7129 11.3326C71.4688 11.6205 71.2748 11.9523 71.1308 12.3279C70.9868 12.6972 70.9148 13.0822 70.9148 13.4828C70.9148 13.8834 70.9993 14.1964 71.1683 14.4218C71.3436 14.6409 71.5971 14.7504 71.9289 14.7504C72.0917 14.7504 72.2544 14.7254 72.4172 14.6753C72.5862 14.6252 72.7458 14.5376 72.896 14.4124C73.0463 14.2809 73.184 14.1088 73.3092 13.896C73.4344 13.6831 73.5377 13.4171 73.619 13.0978L74.3045 10.45ZM75.4031 12.8537C75.3029 13.2543 75.2528 13.583 75.2528 13.8396C75.2591 14.09 75.2998 14.2903 75.3749 14.4406C75.45 14.5845 75.5564 14.6847 75.6942 14.741C75.8319 14.7974 75.9884 14.8255 76.1636 14.8255C76.4266 14.8255 76.6738 14.7442 76.9054 14.5814C77.1433 14.4124 77.3499 14.1777 77.5251 13.8772C77.7004 13.5767 77.8381 13.2199 77.9383 12.8068C78.0447 12.3936 78.0979 11.9429 78.0979 11.4546C78.0979 10.6409 77.9696 9.92413 77.7129 9.30441C77.4626 8.68469 77.1089 8.16826 76.6519 7.75511C76.1949 7.33571 75.6503 7.02272 75.0181 6.81615C74.3921 6.60332 73.7036 6.4969 72.9524 6.4969C72.1261 6.4969 71.3624 6.65339 70.6613 6.96638C69.9602 7.27311 69.3499 7.69565 68.8303 8.23399C68.317 8.77233 67.9133 9.4077 67.619 10.1401C67.3311 10.8725 67.1871 11.6612 67.1871 12.5063C67.1871 13.5329 67.3467 14.4374 67.666 15.2199C67.9852 15.9961 68.4234 16.6471 68.9805 17.173C69.5377 17.6925 70.1918 18.0838 70.943 18.3467C71.7004 18.6096 72.5173 18.741 73.3937 18.741C73.8757 18.741 74.3264 18.7129 74.7458 18.6565C75.1652 18.6064 75.5502 18.5345 75.9007 18.4406C76.2513 18.3529 76.5705 18.2496 76.8585 18.1307C77.1464 18.018 77.4031 17.896 77.6284 17.7645C77.7912 17.6706 77.9352 17.6424 78.0604 17.68C78.1856 17.7176 78.2763 17.8115 78.3327 17.9617L78.6519 18.7974C78.0009 19.223 77.2403 19.5705 76.3702 19.8396C75.5001 20.1088 74.5079 20.2434 73.3937 20.2434C72.2607 20.2434 71.2122 20.065 70.2482 19.7082C69.2841 19.3514 68.4485 18.8381 67.7411 18.1683C67.04 17.5047 66.4892 16.6941 66.0885 15.7363C65.6942 14.7786 65.497 13.7019 65.497 12.5063C65.497 11.8365 65.5815 11.1855 65.7505 10.5532C65.9258 9.921 66.173 9.32945 66.4923 8.77859C66.8115 8.22147 67.1965 7.7113 67.6472 7.24807C68.0979 6.78485 68.5987 6.38735 69.1496 6.05558C69.7004 5.72382 70.2951 5.46716 70.9336 5.28563C71.5784 5.09784 72.2513 5.00394 72.9524 5.00394C73.8413 5.00394 74.6926 5.15418 75.5064 5.45464C76.3264 5.74885 77.0494 6.17452 77.6754 6.73164C78.3076 7.2825 78.8115 7.95856 79.1871 8.75981C79.5627 9.5548 79.7505 10.4531 79.7505 11.4546C79.7505 12.1244 79.6503 12.7536 79.45 13.342C79.256 13.9241 78.9805 14.4312 78.6237 14.8631C78.2732 15.295 77.8569 15.6362 77.3749 15.8866C76.8992 16.1307 76.3796 16.2528 75.8162 16.2528C75.3843 16.2528 75.0025 16.1526 74.6707 15.9523C74.3389 15.752 74.1104 15.4296 73.9852 14.9852C73.6159 15.4359 73.2247 15.7582 72.8115 15.9523C72.3984 16.1464 71.9508 16.2434 71.4688 16.2434C71.0744 16.2434 70.7302 16.1745 70.4359 16.0368C70.148 15.8991 69.9039 15.7113 69.7036 15.4734C69.5095 15.2293 69.3624 14.9445 69.2622 14.619C69.1683 14.2872 69.1214 13.9273 69.1214 13.5392C69.1214 13.1823 69.1652 12.8224 69.2528 12.4593C69.3467 12.09 69.4845 11.7363 69.666 11.3983C69.8475 11.054 70.0729 10.7348 70.342 10.4406C70.6175 10.1401 70.9367 9.88031 71.2998 9.66122C71.6691 9.43587 72.0823 9.26059 72.5392 9.1354C73.0025 9.00394 73.5095 8.93821 74.0604 8.93821C74.5486 8.93821 74.9649 8.97577 75.3092 9.05089C75.6535 9.12601 75.9852 9.23242 76.3045 9.37014L75.4031 12.8537Z" fill="#D8D8D8"/>
<g clip-path="url(#clip0_711_54)">
<path d="M21.1571 10.7889C21.1571 16.2905 16.692 20.7518 11.1824 20.7518C5.67275 20.7518 1.20768 16.2905 1.20768 10.7889C1.20768 5.28736 5.67275 0.826085 11.1824 0.826085C16.692 0.826085 21.1571 5.28736 21.1571 10.7889Z" fill="#D8D8D8" stroke="#A4A4A4" stroke-width="1.43342"/>
<path d="M12.3079 9.66124C11.7263 9.08041 10.9436 8.74506 10.1215 8.72456C9.29938 8.70406 8.50083 8.99998 7.89103 9.5511L7.775 9.66124L5.96211 11.4728C5.37168 12.0636 5.03562 12.8614 5.02555 13.6961C5.01549 14.5309 5.33222 15.3365 5.90823 15.9414C6.48425 16.5463 7.27399 16.9025 8.10912 16.9341C8.94425 16.9657 9.75873 16.6703 10.3789 16.1107L10.4943 16.0006L11.8546 14.6418C11.9696 14.5266 12.0364 14.3719 12.0413 14.2093C12.0463 14.0467 11.9891 13.8883 11.8814 13.7663C11.7737 13.6443 11.6235 13.5678 11.4614 13.5523C11.2992 13.5369 11.1373 13.5837 11.0085 13.6832L10.9482 13.7364L9.58789 15.0952C9.23526 15.4494 8.75834 15.6526 8.25827 15.6615C7.75821 15.6704 7.27435 15.4843 6.90934 15.1428C6.54432 14.8012 6.32686 14.3311 6.30309 13.8321C6.27932 13.333 6.45111 12.8444 6.78201 12.4698L6.86856 12.3782L8.68144 10.5673C8.86003 10.3889 9.07205 10.2474 9.3054 10.1508C9.53875 10.0543 9.78885 10.0046 10.0414 10.0046C10.294 10.0046 10.5441 10.0543 10.7775 10.1508C11.0108 10.2474 11.2228 10.3889 11.4014 10.5673C11.5217 10.6874 11.6848 10.7548 11.8549 10.7547C12.0249 10.7547 12.188 10.6872 12.3082 10.567C12.4284 10.4468 12.4959 10.2839 12.4958 10.1141C12.4958 9.94419 12.4281 9.78131 12.3079 9.66124ZM16.3875 5.58612C15.806 5.00528 15.0232 4.66994 14.2011 4.64944C13.379 4.62894 12.5805 4.92485 11.9707 5.47598L11.8546 5.58612L10.495 6.94556C10.38 7.06079 10.3133 7.21542 10.3083 7.37803C10.3033 7.54065 10.3605 7.69905 10.4682 7.82108C10.5759 7.94311 10.7261 8.0196 10.8882 8.03503C11.0504 8.05046 11.2123 8.00366 11.3412 7.90415L11.4014 7.851L12.7611 6.49284C13.1143 6.14229 13.5899 5.94226 14.0878 5.93483C14.5857 5.9274 15.067 6.11315 15.4306 6.453C15.7941 6.79285 16.0116 7.26031 16.0371 7.75703C16.0627 8.25375 15.8944 8.74102 15.5676 9.11631L15.4811 9.20852L13.6675 11.02C13.3069 11.3802 12.8178 11.5825 12.3079 11.5825C11.7979 11.5825 11.3088 11.3802 10.9482 11.02C10.8887 10.9605 10.818 10.9133 10.7402 10.8811C10.6625 10.8489 10.5791 10.8323 10.4949 10.8323C10.4107 10.8323 10.3273 10.8488 10.2495 10.881C10.1717 10.9131 10.101 10.9603 10.0414 11.0197C9.98187 11.0792 9.93462 11.1498 9.90237 11.2275C9.87012 11.3051 9.8535 11.3884 9.85347 11.4725C9.85344 11.5566 9.87 11.6399 9.90219 11.7176C9.93439 11.7954 9.98159 11.866 10.0411 11.9255C10.6226 12.5063 11.4054 12.8417 12.2275 12.8622C13.0496 12.8827 13.8481 12.5867 14.4579 12.0356L14.5746 11.9255L16.3875 10.114C16.9884 9.51355 17.326 8.69933 17.326 7.85036C17.326 7.00138 16.9884 6.18652 16.3875 5.58612Z" fill="#5E5E5E"/>
</g>
<defs>
<clipPath id="clip0_711_54">
<rect width="21.3828" height="21.3591" fill="white" transform="matrix(-1 0 0 1 21.8757 0.109375)"/>
</clipPath>
</defs>
</svg>
