<svg width="77" height="44" viewBox="0 0 77 44" fill="none" xmlns="http://www.w3.org/2000/svg">
<path d="M53.3729 15.4278C53.3729 23.6318 46.7147 30.2836 38.5 30.2836C30.2854 30.2836 23.6271 23.6318 23.6271 15.4278C23.6271 7.22379 30.2854 0.572034 38.5 0.572034C46.7147 0.572034 53.3729 7.22379 53.3729 15.4278Z" stroke="#D8D8D8" stroke-width="1.14407"/>
<path d="M5.49437 41.3287H2.07865L1.44944 43.0703H0.370786L3.20224 35.2838H4.38202L7.20224 43.0703H6.12359L5.49437 41.3287ZM5.20224 40.4973L3.78651 36.5422L2.37078 40.4973H5.20224ZM9.73963 39.149C9.73963 38.3849 9.91191 37.6995 10.2565 37.0928C10.6011 36.4786 11.0692 35.9992 11.661 35.6546C12.2602 35.31 12.9231 35.1377 13.6497 35.1377C14.5037 35.1377 15.249 35.3437 15.8857 35.7557C16.5224 36.1677 16.9868 36.752 17.2789 37.5085H16.0542C15.837 37.0366 15.5224 36.6733 15.1104 36.4186C14.7059 36.164 14.219 36.0366 13.6497 36.0366C13.1029 36.0366 12.6123 36.164 12.1778 36.4186C11.7434 36.6733 11.4025 37.0366 11.1554 37.5085C10.9082 37.9729 10.7846 38.5198 10.7846 39.149C10.7846 39.7707 10.9082 40.3175 11.1554 40.7894C11.4025 41.2538 11.7434 41.6134 12.1778 41.8681C12.6123 42.1227 13.1029 42.2501 13.6497 42.2501C14.219 42.2501 14.7059 42.1265 15.1104 41.8793C15.5224 41.6246 15.837 41.2613 16.0542 40.7894H17.2789C16.9868 41.5385 16.5224 42.119 15.8857 42.531C15.249 42.9355 14.5037 43.1377 13.6497 43.1377C12.9231 43.1377 12.2602 42.9692 11.661 42.6321C11.0692 42.2875 10.6011 41.8119 10.2565 41.2051C9.91191 40.5984 9.73963 39.913 9.73963 39.149ZM21.5088 36.0703V38.6883H24.3628V39.531H21.5088V42.2276H24.6998V43.0703H20.4864V35.2276H24.6998V36.0703H21.5088ZM31.1346 39.1602L33.5391 43.0703H32.3818L30.5054 40.0141L28.7189 43.0703H27.5841L29.9773 39.1602L27.5728 35.2389H28.7189L30.6065 38.3063L32.4043 35.2389H33.5503L31.1346 39.1602ZM44.5401 35.295V43.0703H43.5177V37.2726L40.9334 43.0703H40.2143L37.6188 37.2613V43.0703H36.5963V35.295H37.6975L40.5739 41.722L43.4503 35.295H44.5401ZM48.982 36.0703V38.6883H51.836V39.531H48.982V42.2276H52.173V43.0703H47.9596V35.2276H52.173V36.0703H48.982ZM57.8438 35.2389C58.6977 35.2389 59.4355 35.3999 60.0572 35.722C60.6865 36.0366 61.1659 36.4898 61.4954 37.0816C61.8325 37.6733 62.0011 38.3699 62.0011 39.1714C62.0011 39.9729 61.8325 40.6696 61.4954 41.2613C61.1659 41.8456 60.6865 42.295 60.0572 42.6096C59.4355 42.9168 58.6977 43.0703 57.8438 43.0703H55.4056V35.2389H57.8438ZM57.8438 42.2276C58.855 42.2276 59.6265 41.9617 60.1584 41.4299C60.6902 40.8905 60.9561 40.1377 60.9561 39.1714C60.9561 38.1977 60.6865 37.4374 60.1471 36.8905C59.6153 36.3437 58.8475 36.0703 57.8438 36.0703H56.428V42.2276H57.8438ZM66.0576 35.2389V43.0703H65.0351V35.2389H66.0576ZM74.1148 41.3287H70.6991L70.0699 43.0703H68.9912L71.8227 35.2838H73.0024L75.8227 43.0703H74.744L74.1148 41.3287ZM73.8227 40.4973L72.4069 36.5422L70.9912 40.4973H73.8227Z" fill="#D8D8D8"/>
</svg>
